<svg xmlns="http://www.w3.org/2000/svg" viewBox="0 0 512 512">
  <defs>
    <linearGradient id="bg" x1="0" y1="0" x2="1" y2="1">
      <stop offset="0%" stop-color="#0f172a" />
      <stop offset="100%" stop-color="#2563eb" />
    </linearGradient>
    <linearGradient id="accent" x1="0" y1="0" x2="1" y2="1">
      <stop offset="0%" stop-color="#22d3ee" />
      <stop offset="100%" stop-color="#f59e0b" />
    </linearGradient>
  </defs>
  <rect width="512" height="512" rx="120" fill="url(#bg)" />
  <circle cx="372" cy="132" r="44" fill="#22d3ee" opacity="0.95" />
  <path d="M132 352c0-74 58-132 124-132h84c22 0 40-18 40-40s-18-40-40-40H158v-52h182c52 0 92 40 92 92 0 38-22 70-54 86 28 18 46 50 46 84v72h-56v-64c0-34-26-58-64-58h-52c-38 0-64 24-64 58v64h-56z" fill="#f8fafc"/>
  <path d="M188 228h160c20 0 36 16 36 36s-16 36-36 36H188z" fill="url(#accent)" opacity="0.92"/>
</svg>
